<?xml version="1.0" encoding="utf-8"?>
<!-- Generator: Adobe Illustrator 24.1.2, SVG Export Plug-In . SVG Version: 6.00 Build 0)  -->
<svg version="1.1" id="Layer_1" xmlns="http://www.w3.org/2000/svg" xmlns:xlink="http://www.w3.org/1999/xlink" x="0px" y="0px"
	 width="140px" height="40px" viewBox="0 0 140 40" enable-background="new 0 0 140 40" xml:space="preserve">
<g>
	<path stroke="#000000" stroke-width="0.3" stroke-miterlimit="10" d="M35.3,34.2c-0.3,0.2-0.6,0.3-0.8,0.4
		c-0.3,0.1-0.5,0.1-0.7,0.1c-0.3,0-0.6-0.1-0.7-0.3c-0.1-0.2-0.2-0.5-0.2-1.1c0-0.7,0-1.9,0.1-3.7s0.1-3.4,0.1-4.5
		c0-1.5,0-2.6-0.1-3.4c-0.1-0.8-0.2-1.3-0.5-1.7c0.3-0.2,0.5-0.3,0.8-0.4c0.3-0.1,0.5-0.1,0.7-0.1c0.3,0,0.6,0.1,0.7,0.3
		c0.1,0.2,0.2,0.5,0.2,1.1c0,0.4,0,1.6-0.1,3.5c-0.1,1.9-0.1,3.5-0.1,5c0,1.5,0,2.6,0.1,3.4S35.1,33.8,35.3,34.2z"/>
	<path stroke="#000000" stroke-width="0.3" stroke-miterlimit="10" d="M48.4,34.2c-0.3,0.2-0.5,0.3-0.7,0.4
		c-0.2,0.1-0.4,0.1-0.6,0.1c-0.3,0-0.5-0.1-0.6-0.3s-0.2-0.5-0.2-0.9c-0.5,0.4-1,0.8-1.5,1c-0.5,0.2-1,0.3-1.5,0.3
		c-1,0-1.9-0.3-2.5-0.9c-0.6-0.6-1-1.3-1-2.3c0-1.1,0.4-1.9,1.3-2.6s2-1,3.5-1c0.2,0,0.5,0,0.8,0c0.3,0,0.6,0,0.9,0.1
		c0-0.1,0-0.1,0-0.2s0-0.1,0-0.2c0-0.7-0.2-1.3-0.6-1.6c-0.4-0.4-1-0.6-1.8-0.6c-0.6,0-1.2,0.1-1.6,0.3c-0.4,0.2-0.7,0.5-1,1
		c-0.2-0.1-0.4-0.2-0.6-0.3c-0.1-0.2-0.2-0.3-0.2-0.6c0-0.5,0.3-0.9,1-1.2s1.5-0.5,2.5-0.5c1.3,0,2.2,0.3,2.8,0.9
		c0.6,0.6,0.9,1.5,0.9,2.7c0,0.2,0,0.6,0,1.2c0,0.6,0,1,0,1.4c0,1,0.1,1.7,0.2,2.3C48,33.3,48.2,33.8,48.4,34.2z M46.1,29.5
		c-0.3,0-0.6-0.1-0.9-0.1s-0.5,0-0.6,0c-1.1,0-1.9,0.2-2.4,0.5c-0.5,0.4-0.8,0.9-0.8,1.6c0,0.6,0.2,1,0.6,1.3
		c0.4,0.3,0.9,0.5,1.6,0.5c0.5,0,1-0.1,1.4-0.3c0.4-0.2,0.8-0.5,1.2-0.9c0-0.3,0-0.6,0-0.8c0-0.2,0-0.4,0-0.6c0-0.1,0-0.3,0-0.6
		S46.1,29.7,46.1,29.5z"/>
	<path stroke="#000000" stroke-width="0.3" stroke-miterlimit="10" d="M51.7,25.8c0.3-0.5,0.5-0.8,0.8-1.1c0.2-0.2,0.5-0.3,0.7-0.3
		c0.3,0,0.6,0.2,0.9,0.6c0.3,0.4,0.6,1.4,1.1,3c0.1,0.2,0.2,0.6,0.3,1c0.8,2.6,1.3,3.9,1.5,3.9c0.1,0,0.3-0.2,0.6-0.6
		c0.3-0.4,0.6-0.9,0.9-1.5c0.6-1.1,1-2,1.3-2.8s0.4-1.6,0.4-2.2c0-0.2,0-0.4-0.1-0.6c0-0.2-0.1-0.4-0.2-0.6c0.1,0,0.3-0.1,0.4-0.1
		s0.3,0,0.4,0c0.5,0,0.8,0.1,1,0.3c0.2,0.2,0.3,0.4,0.3,0.8c0,0.7-0.2,1.6-0.7,2.7s-1.1,2.3-1.9,3.7c-0.7,1.2-1.3,2-1.7,2.4
		s-0.8,0.6-1.2,0.6c-0.6,0-1.2-1-1.9-3c-0.2-0.7-0.4-1.2-0.5-1.6c-0.4-1.3-0.8-2.2-1.2-2.9C52.5,26.6,52.1,26.1,51.7,25.8z"/>
	<path stroke="#000000" stroke-width="0.3" stroke-miterlimit="10" d="M74.6,34.2c-0.3,0.2-0.5,0.3-0.7,0.4s-0.4,0.1-0.6,0.1
		c-0.3,0-0.5-0.1-0.6-0.3c-0.1-0.2-0.2-0.5-0.2-0.9c-0.5,0.4-1,0.8-1.5,1c-0.5,0.2-1,0.3-1.5,0.3c-1,0-1.9-0.3-2.5-0.9
		c-0.6-0.6-1-1.3-1-2.3c0-1.1,0.4-1.9,1.3-2.6s2-1,3.5-1c0.2,0,0.5,0,0.8,0c0.3,0,0.6,0,0.9,0.1c0-0.1,0-0.1,0-0.2
		c0-0.1,0-0.1,0-0.2c0-0.7-0.2-1.3-0.6-1.6c-0.4-0.4-1-0.6-1.8-0.6c-0.6,0-1.2,0.1-1.6,0.3c-0.4,0.2-0.7,0.5-1,1
		c-0.2-0.1-0.4-0.2-0.6-0.3c-0.1-0.2-0.2-0.3-0.2-0.6c0-0.5,0.3-0.9,1-1.2s1.5-0.5,2.5-0.5c1.3,0,2.2,0.3,2.8,0.9
		c0.6,0.6,0.9,1.5,0.9,2.7c0,0.2,0,0.6,0,1.2c0,0.6,0,1,0,1.4c0,1,0.1,1.7,0.2,2.3C74.1,33.3,74.3,33.8,74.6,34.2z M72.3,29.5
		c-0.3,0-0.6-0.1-0.9-0.1c-0.3,0-0.5,0-0.6,0c-1.1,0-1.9,0.2-2.4,0.5c-0.5,0.4-0.8,0.9-0.8,1.6c0,0.6,0.2,1,0.6,1.3
		c0.4,0.3,0.9,0.5,1.6,0.5c0.5,0,1-0.1,1.4-0.3c0.4-0.2,0.8-0.5,1.2-0.9c0-0.3,0-0.6,0-0.8s0-0.4,0-0.6c0-0.1,0-0.3,0-0.6
		S72.3,29.7,72.3,29.5z"/>
</g>
<g>
	<path fill="#E9B949" stroke="#E9B949" stroke-width="0.3" stroke-miterlimit="10" d="M119.8,35.8c-0.3,0.2-0.6,0.3-0.8,0.4
		c-0.3,0.1-0.5,0.1-0.8,0.1c-0.3,0-0.6-0.1-0.7-0.3c-0.1-0.2-0.2-0.5-0.2-1.1c0-0.3,0-1,0.1-2.1c0.1-1.1,0.1-2.1,0.1-2.8
		c0-0.9,0-1.6-0.1-2.1c-0.1-0.5-0.2-1-0.4-1.4c0.3-0.2,0.5-0.3,0.8-0.3c0.3-0.1,0.5-0.1,0.8-0.1c0.3,0,0.5,0.1,0.7,0.2
		s0.2,0.4,0.2,0.9c0,0.1,0,0.7-0.1,1.8c-0.1,1.1-0.1,2.1-0.1,3.1c0,0.9,0,1.7,0.1,2.3C119.5,34.9,119.6,35.4,119.8,35.8z
		 M119.7,22.8c0,0.4-0.1,0.7-0.4,1c-0.3,0.3-0.6,0.4-1,0.4c-0.4,0-0.7-0.1-0.9-0.3c-0.2-0.2-0.3-0.5-0.3-0.8c0-0.4,0.1-0.7,0.4-1
		s0.6-0.4,1-0.4c0.4,0,0.7,0.1,0.9,0.3C119.6,22.2,119.7,22.5,119.7,22.8z"/>
	<path fill="#E9B949" stroke="#E9B949" stroke-width="0.3" stroke-miterlimit="10" d="M129.4,36.5c-1.6,0-2.9-0.5-3.9-1.5
		c-1-1-1.5-2.3-1.5-3.8c0-1.6,0.5-3,1.6-4c1.1-1,2.5-1.5,4.2-1.5c1.5,0,2.8,0.5,3.8,1.5s1.5,2.2,1.5,3.7c0,0.6-0.1,1.2-0.3,1.8
		c-0.2,0.6-0.4,1.1-0.8,1.5c-0.6,0.8-1.3,1.4-2.1,1.8C131.2,36.3,130.4,36.5,129.4,36.5z M129.5,35c1.1,0,2-0.4,2.7-1.1
		s1.1-1.7,1.1-2.9c0-1.1-0.3-2.1-1-2.8c-0.7-0.7-1.6-1.1-2.7-1.1c-1.1,0-2.1,0.4-2.8,1.1c-0.7,0.7-1,1.7-1,3c0,1.1,0.4,2,1.1,2.7
		S128.5,35,129.5,35z"/>
</g>
<g>
</g>
<g>
	<path d="M26.6,3.5v9c-0.7-0.2-1.2-0.3-1.6-0.3c-0.7,0-1.3,0.3-1.8,0.8c-0.5,0.5-0.8,1.2-0.8,1.9c0,0.6,0.3,1.4,0.8,2.4l0.7,1.2
		c1.3,2.2,1.9,4.4,1.9,6.5c0,3.1-1.1,5.6-3.3,7.8s-4.8,3.2-7.9,3.2c-1.5,0-3-0.3-4.5-1v-9.1c0.9,0.6,1.7,0.9,2.4,0.9
		c0.8,0,1.5-0.2,2-0.7c0.5-0.5,0.8-1.1,0.8-1.8c0-0.5-0.4-1.5-1.3-3c-1.4-2.5-2.1-4.9-2.1-7.4c0-3,1.1-5.5,3.2-7.7
		c2.1-2.1,4.6-3.2,7.6-3.2C24.1,2.8,25.4,3.1,26.6,3.5z"/>
</g>
<g>
	<path fill="#E9B949" d="M88.2,4.8h11.4c6.8,0,10.1,2.7,10.1,8c0,2.6-1.2,4.8-3.5,6.6c3.4,1.5,5,4.1,5,7.8c0,2.9-1,5.2-3,6.9
		c-1,0.8-2,1.4-3.1,1.7c-1.1,0.3-2.6,0.5-4.5,0.5h-1.8v-8.1h1.6c0.9,0,1.6-0.1,2-0.4c0.4-0.2,0.6-0.7,0.6-1.3c0-1-0.8-1.5-2.3-1.5
		h-1.8v-8.4c1.7,0,2.6-0.6,2.6-1.8c0-1.1-0.8-1.6-2.3-1.6h-1.7v23h-9.3V4.8z"/>
</g>
<g>
</g>
<g>
</g>
<g>
</g>
<g>
</g>
<g>
</g>
<g>
</g>
<g>
</g>
<g>
</g>
<g>
</g>
<g>
</g>
<g>
</g>
<g>
</g>
<g>
</g>
<g>
</g>
<g>
</g>
</svg>
